<svg width="24" height="25" viewBox="0 0 24 25" fill="none" xmlns="http://www.w3.org/2000/svg">
<g clip-path="url(#clip0_1102_5504)">
<path d="M16.709 21.6457L22 22.8217L20.824 17.5307C21.5985 16.0821 22.0025 14.4644 22 12.8217C22 7.29875 17.523 2.82175 12 2.82175C6.47699 2.82175 1.99999 7.29875 1.99999 12.8217C1.99999 18.3447 6.47699 22.8217 12 22.8217C13.6426 22.8242 15.2604 22.4202 16.709 21.6457ZM16.419 19.5327L15.766 19.8827C14.6074 20.5019 13.3136 20.8245 12 20.8217C10.4177 20.8217 8.87102 20.3526 7.55543 19.4735C6.23983 18.5945 5.21445 17.345 4.60895 15.8832C4.00345 14.4214 3.84502 12.8129 4.15371 11.261C4.46239 9.70918 5.22431 8.28371 6.34313 7.16489C7.46195 6.04607 8.88742 5.28415 10.4393 4.97546C11.9911 4.66678 13.5996 4.82521 15.0615 5.43071C16.5233 6.03621 17.7727 7.06159 18.6517 8.37718C19.5308 9.69278 20 11.2395 20 12.8217C20 14.1557 19.675 15.4397 19.06 16.5877L18.711 17.2407L19.366 20.1877L16.419 19.5327Z" fill="#747474"/>
</g>
<defs>
<clipPath id="clip0_1102_5504">
<rect width="24" height="24" fill="white" transform="matrix(-1 0 0 1 24 0.821747)"/>
</clipPath>
</defs>
</svg>
